<svg xmlns="http://www.w3.org/2000/svg" width="17.2" height="24.275" viewBox="0 0 17.2 24.275">
  <path id="icon-direc" d="M894.606,1117.14a8.008,8.008,0,0,1,5.977-2.44,8.331,8.331,0,0,1,8.417,8.417,10.4,10.4,0,0,1-.854,4.026,28.212,28.212,0,0,1-2.2,4.269c-.854,1.342-1.708,2.562-2.44,3.782a20.972,20.972,0,0,1-2.074,2.806l-.976.976c-.244-.244-.488-.61-.976-1.1a26.9,26.9,0,0,1-2.074-2.684c-.976-1.342-1.83-2.562-2.562-3.781a32.867,32.867,0,0,1-2.074-4.148,11.305,11.305,0,0,1-.976-4.148A9.81,9.81,0,0,1,894.606,1117.14Zm3.9,8.173a3.25,3.25,0,1,0-.854-2.2A2.94,2.94,0,0,0,898.509,1125.313Z" transform="translate(-891.8 -1114.7)" fill="#172983"/>
</svg>
