<svg xmlns="http://www.w3.org/2000/svg" width="24.375" height="24.375" viewBox="0 0 24.375 24.375">
  <path id="icon-telef" d="M414.475,82.127a20.365,20.365,0,0,0,8.938,8.938l2.979-2.979a1.078,1.078,0,0,1,1.354-.271,14.165,14.165,0,0,0,4.875.813,1.388,1.388,0,0,1,1.354,1.354v4.74a1.388,1.388,0,0,1-1.354,1.354A23.118,23.118,0,0,1,409.6,73.054a1.388,1.388,0,0,1,1.354-1.354h4.74a1.388,1.388,0,0,1,1.354,1.354,15.336,15.336,0,0,0,.813,4.875,1.48,1.48,0,0,1-.271,1.354Z" transform="translate(-409.6 -71.7)" fill="#172983"/>
</svg>
