<svg xmlns="http://www.w3.org/2000/svg" width="34.801" height="35.04" viewBox="0 0 34.801 35.04">
  <path id="Trazado_238" data-name="Trazado 238" d="M1040.75,345.937a18.037,18.037,0,0,1,8.76,2.2,16.556,16.556,0,0,1,6.24,5.8,15.077,15.077,0,0,1,2.4,8.2,14.886,14.886,0,0,1-2.4,8.16,16.148,16.148,0,0,1-6.24,5.8,17.773,17.773,0,0,1-8.76,2.24,18.545,18.545,0,0,1-5-.68l-5.92,3.279v-6.2a16.712,16.712,0,0,1-4.72-5.521,14.876,14.876,0,0,1-1.761-7.08,15.083,15.083,0,0,1,2.4-8.2,16.57,16.57,0,0,1,6.24-5.8,18.369,18.369,0,0,1,8.76-2.24v.041Zm11.24,11.64-8.521,4.76-4.56-4.76-9.521,10.16,8.681-4.76,4.4,4.76Z" transform="translate(-1023.349 -345.896)" fill="#fff"/>
</svg>
